<?xml version="1.0" encoding="UTF-8" standalone="no"?>
<!DOCTYPE svg PUBLIC "-//W3C//DTD SVG 1.1//EN"
 "http://www.w3.org/Graphics/SVG/1.1/DTD/svg11.dtd">
<!-- Generated by graphviz version 2.28.0 (20111201.0358)
 -->
<!-- Title: _anonymous_0 Pages: 1 -->
<svg width="168pt" height="314pt"
 viewBox="0.00 0.00 167.76 314.00" xmlns="http://www.w3.org/2000/svg" xmlns:xlink="http://www.w3.org/1999/xlink">
<g id="graph1" class="graph" transform="scale(1 1) rotate(0) translate(4 310)">
<title>_anonymous_0</title>
<polygon fill="white" stroke="white" points="-4,5 -4,-310 164.764,-310 164.764,5 -4,5"/>
<!-- dial -->
<g id="node1" class="node"><title>dial</title>
<ellipse fill="none" stroke="black" cx="108" cy="-288" rx="27" ry="18"/>
<text text-anchor="middle" x="108" y="-283.8" font-family="Times,serif" font-size="14.00">dial</text>
</g>
<!-- dial1 -->
<g id="node3" class="node"><title>dial1</title>
<ellipse fill="none" stroke="black" cx="39" cy="-198" rx="30.0229" ry="18"/>
<text text-anchor="middle" x="39" y="-193.8" font-family="Times,serif" font-size="14.00">dial1</text>
</g>
<!-- dial&#45;&gt;dial1 -->
<g id="edge2" class="edge"><title>dial&#45;&gt;dial1</title>
<path fill="none" stroke="black" d="M95.9811,-271.672C85.4258,-258.21 69.8976,-238.406 57.7161,-222.87"/>
<polygon fill="black" stroke="black" points="60.2704,-220.455 51.3458,-214.745 54.7618,-224.774 60.2704,-220.455"/>
<text text-anchor="middle" x="100.219" y="-238.8" font-family="Times,serif" font-size="14.00">Crdtmf</text>
</g>
<!-- error -->
<g id="node8" class="node"><title>error</title>
<ellipse fill="none" stroke="black" cx="99" cy="-18" rx="29.1982" ry="18"/>
<text text-anchor="middle" x="99" y="-13.8" font-family="Times,serif" font-size="14.00">error</text>
</g>
<!-- dial&#45;&gt;error -->
<g id="edge8" class="edge"><title>dial&#45;&gt;error</title>
<path fill="none" stroke="black" d="M116.572,-270.615C119.29,-264.858 122.084,-258.261 124,-252 145.079,-183.119 140.037,-161.184 129,-90 126.437,-73.4673 124.468,-69.4294 118,-54 116.622,-50.7122 115.028,-47.3289 113.361,-44.022"/>
<polygon fill="black" stroke="black" points="116.375,-42.2338 108.59,-35.0472 110.194,-45.5199 116.375,-42.2338"/>
<text text-anchor="middle" x="148.882" y="-148.8" font-family="Times,serif" font-size="14.00">else</text>
</g>
<!-- dial1&#45;&gt;dial1 -->
<g id="edge4" class="edge"><title>dial1&#45;&gt;dial1</title>
<path fill="none" stroke="black" d="M66.1397,-206.177C77.4297,-206.741 87,-204.016 87,-198 87,-193.958 82.6798,-191.402 76.4205,-190.33"/>
<polygon fill="black" stroke="black" points="76.3001,-186.82 66.1397,-189.823 75.955,-193.811 76.3001,-186.82"/>
<text text-anchor="middle" x="104.499" y="-193.8" font-family="Times,serif" font-size="14.00">Cronn</text>
</g>
<!-- dial2 -->
<g id="node6" class="node"><title>dial2</title>
<ellipse fill="none" stroke="black" cx="30" cy="-108" rx="30.0229" ry="18"/>
<text text-anchor="middle" x="30" y="-103.8" font-family="Times,serif" font-size="14.00">dial2</text>
</g>
<!-- dial1&#45;&gt;dial2 -->
<g id="edge6" class="edge"><title>dial1&#45;&gt;dial2</title>
<path fill="none" stroke="black" d="M33.1518,-180.115C31.4602,-174.432 29.844,-168.008 29.0028,-162 27.8493,-153.762 27.6347,-144.734 27.8398,-136.5"/>
<polygon fill="black" stroke="black" points="31.3471,-136.418 28.3074,-126.268 24.3544,-136.098 31.3471,-136.418"/>
<text text-anchor="middle" x="57.9986" y="-148.8" font-family="Times,serif" font-size="14.00">Cronhook</text>
</g>
<!-- dial1&#45;&gt;error -->
<g id="edge10" class="edge"><title>dial1&#45;&gt;error</title>
<path fill="none" stroke="black" d="M61.0914,-185.552C70.034,-179.741 79.5233,-171.814 85,-162 105.136,-125.915 105.075,-76.6522 102.523,-46.3761"/>
<polygon fill="black" stroke="black" points="105.978,-45.7441 101.504,-36.1404 99.0123,-46.4381 105.978,-45.7441"/>
<text text-anchor="middle" x="114.882" y="-103.8" font-family="Times,serif" font-size="14.00">else</text>
</g>
<!-- dial2&#45;&gt;error -->
<g id="edge12" class="edge"><title>dial2&#45;&gt;error</title>
<path fill="none" stroke="black" d="M38.9536,-90.5634C45.1683,-79.7417 53.9691,-65.5026 63.2356,-54 67.0065,-49.3192 71.3514,-44.612 75.6847,-40.2346"/>
<polygon fill="black" stroke="black" points="78.1421,-42.727 82.8628,-33.2419 73.2575,-37.7128 78.1421,-42.727"/>
<text text-anchor="middle" x="74.8822" y="-58.8" font-family="Times,serif" font-size="14.00">else</text>
</g>
</g>
</svg>
