<?xml version="1.0" encoding="UTF-8" standalone="no"?>
<!DOCTYPE svg PUBLIC "-//W3C//DTD SVG 1.1//EN"
 "http://www.w3.org/Graphics/SVG/1.1/DTD/svg11.dtd">
<!-- Generated by graphviz version 2.28.0 (20111201.0358)
 -->
<!-- Title: _anonymous_0 Pages: 1 -->
<svg width="404pt" height="404pt"
 viewBox="0.00 0.00 404.00 404.00" xmlns="http://www.w3.org/2000/svg" xmlns:xlink="http://www.w3.org/1999/xlink">
<g id="graph1" class="graph" transform="scale(1 1) rotate(0) translate(4 400)">
<title>_anonymous_0</title>
<polygon fill="white" stroke="white" points="-4,5 -4,-400 401,-400 401,5 -4,5"/>
<!-- ltl -->
<g id="node1" class="node"><title>ltl</title>
<ellipse fill="none" stroke="black" cx="63" cy="-369" rx="63.459" ry="26.7407"/>
<text text-anchor="middle" x="63" y="-372.8" font-family="Times,serif" font-size="14.00">LTL</text>
<text text-anchor="middle" x="63" y="-357.8" font-family="Times,serif" font-size="14.00"> requirement</text>
</g>
<!-- logic -->
<g id="node2" class="node"><title>logic</title>
<ellipse fill="none" stroke="black" cx="63" cy="-279" rx="49.2462" ry="26.7407"/>
<text text-anchor="middle" x="63" y="-282.8" font-family="Times,serif" font-size="14.00">Logical</text>
<text text-anchor="middle" x="63" y="-267.8" font-family="Times,serif" font-size="14.00"> negation</text>
</g>
<!-- ltl&#45;&gt;logic -->
<g id="edge2" class="edge"><title>ltl&#45;&gt;logic</title>
<path fill="none" stroke="black" d="M63,-342.073C63,-333.999 63,-324.943 63,-316.296"/>
<polygon fill="black" stroke="black" points="66.5001,-316.046 63,-306.046 59.5001,-316.046 66.5001,-316.046"/>
</g>
<!-- model -->
<g id="node3" class="node"><title>model</title>
<ellipse fill="none" stroke="black" cx="189" cy="-189" rx="50.3073" ry="26.7407"/>
<text text-anchor="middle" x="189" y="-192.8" font-family="Times,serif" font-size="14.00">Model</text>
<text text-anchor="middle" x="189" y="-177.8" font-family="Times,serif" font-size="14.00"> extractor</text>
</g>
<!-- logic&#45;&gt;model -->
<g id="edge4" class="edge"><title>logic&#45;&gt;model</title>
<path fill="none" stroke="black" d="M92.5414,-257.368C109.951,-245.209 132.162,-229.696 150.882,-216.622"/>
<polygon fill="black" stroke="black" points="153.013,-219.403 159.207,-210.808 149.005,-213.664 153.013,-219.403"/>
</g>
<!-- automata -->
<g id="node7" class="node"><title>automata</title>
<ellipse fill="none" stroke="black" cx="189" cy="-99" rx="50.3685" ry="26.7407"/>
<text text-anchor="middle" x="189" y="-102.8" font-family="Times,serif" font-size="14.00">Omega</text>
<text text-anchor="middle" x="189" y="-87.8" font-family="Times,serif" font-size="14.00"> automata</text>
</g>
<!-- model&#45;&gt;automata -->
<g id="edge11" class="edge"><title>model&#45;&gt;automata</title>
<path fill="none" stroke="black" d="M189,-162.073C189,-153.999 189,-144.943 189,-136.296"/>
<polygon fill="black" stroke="black" points="192.5,-136.046 189,-126.046 185.5,-136.046 192.5,-136.046"/>
</g>
<!-- c -->
<g id="node4" class="node"><title>c</title>
<ellipse fill="none" stroke="black" cx="189" cy="-369" rx="37.0701" ry="18"/>
<text text-anchor="middle" x="189" y="-365.3" font-family="Times,serif" font-size="14.00">C code</text>
</g>
<!-- abs -->
<g id="node5" class="node"><title>abs</title>
<ellipse fill="none" stroke="black" cx="189" cy="-279" rx="58.5343" ry="26.7407"/>
<text text-anchor="middle" x="189" y="-282.8" font-family="Times,serif" font-size="14.00">Abstraction</text>
<text text-anchor="middle" x="189" y="-267.8" font-family="Times,serif" font-size="14.00"> map</text>
</g>
<!-- c&#45;&gt;abs -->
<g id="edge6" class="edge"><title>c&#45;&gt;abs</title>
<path fill="none" stroke="black" d="M189,-350.614C189,-340.774 189,-328.089 189,-316.191"/>
<polygon fill="black" stroke="black" points="192.5,-316.029 189,-306.029 185.5,-316.029 192.5,-316.029"/>
</g>
<!-- abs&#45;&gt;model -->
<g id="edge7" class="edge"><title>abs&#45;&gt;model</title>
<path fill="none" stroke="black" d="M189,-252.073C189,-243.999 189,-234.943 189,-226.296"/>
<polygon fill="black" stroke="black" points="192.5,-226.046 189,-216.046 185.5,-226.046 192.5,-226.046"/>
</g>
<!-- env -->
<g id="node6" class="node"><title>env</title>
<ellipse fill="none" stroke="black" cx="331" cy="-279" rx="65.0808" ry="26.7407"/>
<text text-anchor="middle" x="331" y="-282.8" font-family="Times,serif" font-size="14.00">Environment</text>
<text text-anchor="middle" x="331" y="-267.8" font-family="Times,serif" font-size="14.00"> model</text>
</g>
<!-- env&#45;&gt;model -->
<g id="edge9" class="edge"><title>env&#45;&gt;model</title>
<path fill="none" stroke="black" d="M295.899,-256.247C275.921,-243.866 250.797,-228.297 229.926,-215.363"/>
<polygon fill="black" stroke="black" points="231.613,-212.29 221.269,-209.998 227.926,-218.241 231.613,-212.29"/>
</g>
<!-- bug -->
<g id="node8" class="node"><title>bug</title>
<ellipse fill="none" stroke="black" cx="189" cy="-18" rx="51.4931" ry="18"/>
<text text-anchor="middle" x="189" y="-14.3" font-family="Times,serif" font-size="14.00">Bug report</text>
</g>
<!-- automata&#45;&gt;bug -->
<g id="edge13" class="edge"><title>automata&#45;&gt;bug</title>
<path fill="none" stroke="black" d="M189,-71.6941C189,-63.5798 189,-54.6261 189,-46.4375"/>
<polygon fill="black" stroke="black" points="192.5,-46.2484 189,-36.2484 185.5,-46.2484 192.5,-46.2484"/>
</g>
</g>
</svg>
