<?xml version="1.0" encoding="UTF-8" standalone="no"?>
<!DOCTYPE svg PUBLIC "-//W3C//DTD SVG 1.1//EN"
 "http://www.w3.org/Graphics/SVG/1.1/DTD/svg11.dtd">
<!-- Generated by graphviz version 2.28.0 (20111201.0358)
 -->
<!-- Title: _anonymous_0 Pages: 1 -->
<svg width="487pt" height="380pt"
 viewBox="0.00 0.00 487.00 380.00" xmlns="http://www.w3.org/2000/svg" xmlns:xlink="http://www.w3.org/1999/xlink">
<g id="graph1" class="graph" transform="scale(1 1) rotate(0) translate(4 376)">
<title>_anonymous_0</title>
<polygon fill="white" stroke="white" points="-4,5 -4,-376 484,-376 484,5 -4,5"/>
<!-- code -->
<g id="node1" class="node"><title>code</title>
<ellipse fill="none" stroke="black" cx="280" cy="-354" rx="38.1822" ry="18"/>
<text text-anchor="middle" x="280" y="-349.8" font-family="Times,serif" font-size="14.00">C code</text>
</g>
<!-- map -->
<g id="node2" class="node"><title>map</title>
<ellipse fill="none" stroke="black" cx="280" cy="-258" rx="80.0525" ry="41.0911"/>
<text text-anchor="middle" x="280" y="-270.6" font-family="Times,serif" font-size="14.00">produce</text>
<text text-anchor="middle" x="280" y="-253.8" font-family="Times,serif" font-size="14.00"> madel extraction</text>
<text text-anchor="middle" x="280" y="-237" font-family="Times,serif" font-size="14.00"> map</text>
</g>
<!-- code&#45;&gt;map -->
<g id="edge2" class="edge"><title>code&#45;&gt;map</title>
<path fill="none" stroke="black" d="M280,-335.759C280,-328.286 280,-319.107 280,-309.729"/>
<polygon fill="black" stroke="black" points="283.5,-309.546 280,-299.546 276.5,-309.547 283.5,-309.546"/>
</g>
<!-- spin -->
<g id="node3" class="node"><title>spin</title>
<ellipse fill="none" stroke="black" cx="280" cy="-162" rx="58.2694" ry="18"/>
<text text-anchor="middle" x="280" y="-157.8" font-family="Times,serif" font-size="14.00">SPIN model</text>
</g>
<!-- map&#45;&gt;spin -->
<g id="edge4" class="edge"><title>map&#45;&gt;spin</title>
<path fill="none" stroke="black" d="M280,-216.59C280,-207.733 280,-198.557 280,-190.354"/>
<polygon fill="black" stroke="black" points="283.5,-190.241 280,-180.241 276.5,-190.241 283.5,-190.241"/>
</g>
<!-- out -->
<g id="node4" class="node"><title>out</title>
<ellipse fill="none" stroke="black" cx="54" cy="-54" rx="50.11" ry="50.1449"/>
<ellipse fill="none" stroke="black" cx="54" cy="-54" rx="54.1128" ry="54.1505"/>
<text text-anchor="middle" x="54" y="-58.2" font-family="Times,serif" font-size="14.00">bug</text>
<text text-anchor="middle" x="54" y="-41.4" font-family="Times,serif" font-size="14.00"> reporting</text>
</g>
<!-- spin&#45;&gt;out -->
<g id="edge14" class="edge"><title>spin&#45;&gt;out</title>
<path fill="none" stroke="black" d="M233.795,-151.034C200.053,-142.576 153.942,-128.513 117,-108 111.588,-104.995 106.203,-101.489 100.993,-97.7387"/>
<polygon fill="black" stroke="black" points="103.058,-94.9124 92.9679,-91.6803 98.84,-100.499 103.058,-94.9124"/>
</g>
<!-- env -->
<g id="node5" class="node"><title>env</title>
<ellipse fill="none" stroke="black" cx="187" cy="-54" rx="61.0254" ry="29.3315"/>
<text text-anchor="middle" x="187" y="-58.2" font-family="Times,serif" font-size="14.00">environment</text>
<text text-anchor="middle" x="187" y="-41.4" font-family="Times,serif" font-size="14.00"> model</text>
</g>
<!-- spin&#45;&gt;env -->
<g id="edge6" class="edge"><title>spin&#45;&gt;env</title>
<path fill="none" stroke="black" d="M260.866,-144.901C246.594,-130.537 227.225,-108.994 211.816,-90.5971"/>
<polygon fill="black" stroke="black" points="214.114,-87.884 205.047,-82.4032 208.718,-92.342 214.114,-87.884"/>
</g>
<!-- feature -->
<g id="node6" class="node"><title>feature</title>
<ellipse fill="none" stroke="black" cx="373" cy="-54" rx="106.452" ry="41.0911"/>
<text text-anchor="middle" x="373" y="-66.6" font-family="Times,serif" font-size="14.00">database of feature</text>
<text text-anchor="middle" x="373" y="-49.8" font-family="Times,serif" font-size="14.00"> requirements expressed</text>
<text text-anchor="middle" x="373" y="-33" font-family="Times,serif" font-size="14.00"> in LTL</text>
</g>
<!-- spin&#45;&gt;feature -->
<g id="edge10" class="edge"><title>spin&#45;&gt;feature</title>
<path fill="none" stroke="black" d="M289.827,-143.969C298.932,-132.1 312.82,-115.674 326.691,-100.163"/>
<polygon fill="black" stroke="black" points="329.375,-102.414 333.479,-92.6468 324.179,-97.7233 329.375,-102.414"/>
</g>
<!-- env&#45;&gt;spin -->
<g id="edge8" class="edge"><title>env&#45;&gt;spin</title>
<path fill="none" stroke="black" d="M215.045,-80.2949C230.951,-97.0596 250.173,-118.969 263.679,-135.729"/>
<polygon fill="black" stroke="black" points="261.234,-138.281 270.173,-143.969 266.732,-133.949 261.234,-138.281"/>
</g>
<!-- feature&#45;&gt;spin -->
<g id="edge12" class="edge"><title>feature&#45;&gt;spin</title>
<path fill="none" stroke="black" d="M345.152,-94.1975C332.849,-108.73 318.519,-124.75 306.375,-137.459"/>
<polygon fill="black" stroke="black" points="303.599,-135.293 299.134,-144.901 308.616,-140.175 303.599,-135.293"/>
</g>
</g>
</svg>
