<?xml version="1.0" encoding="UTF-8" standalone="no"?>
<!DOCTYPE svg PUBLIC "-//W3C//DTD SVG 1.1//EN"
 "http://www.w3.org/Graphics/SVG/1.1/DTD/svg11.dtd">
<!-- Generated by graphviz version 2.28.0 (20111201.0358)
 -->
<!-- Title: _anonymous_0 Pages: 1 -->
<svg width="501pt" height="378pt"
 viewBox="0.00 0.00 501.00 378.00" xmlns="http://www.w3.org/2000/svg" xmlns:xlink="http://www.w3.org/1999/xlink">
<g id="graph1" class="graph" transform="scale(1 1) rotate(0) translate(4 374)">
<title>_anonymous_0</title>
<polygon fill="white" stroke="white" points="-4,5 -4,-374 498,-374 498,5 -4,5"/>
<!-- code -->
<g id="node1" class="node"><title>code</title>
<ellipse fill="none" stroke="black" cx="157" cy="-352" rx="37.0701" ry="18"/>
<text text-anchor="middle" x="157" y="-348.3" font-family="Times,serif" font-size="14.00">C code</text>
</g>
<!-- map -->
<g id="node2" class="node"><title>map</title>
<ellipse fill="none" stroke="black" cx="157" cy="-260" rx="82.0366" ry="37.4533"/>
<text text-anchor="middle" x="157" y="-271.3" font-family="Times,serif" font-size="14.00">produce</text>
<text text-anchor="middle" x="157" y="-256.3" font-family="Times,serif" font-size="14.00"> madel extraction</text>
<text text-anchor="middle" x="157" y="-241.3" font-family="Times,serif" font-size="14.00"> map</text>
</g>
<!-- code&#45;&gt;map -->
<g id="edge2" class="edge"><title>code&#45;&gt;map</title>
<path fill="none" stroke="black" d="M157,-333.647C157,-326.145 157,-316.968 157,-307.696"/>
<polygon fill="black" stroke="black" points="160.5,-307.671 157,-297.671 153.5,-307.671 160.5,-307.671"/>
</g>
<!-- spin -->
<g id="node5" class="node"><title>spin</title>
<ellipse fill="none" stroke="black" cx="157" cy="-168" rx="57.2927" ry="18"/>
<text text-anchor="middle" x="157" y="-164.3" font-family="Times,serif" font-size="14.00">SPIN model</text>
</g>
<!-- map&#45;&gt;spin -->
<g id="edge4" class="edge"><title>map&#45;&gt;spin</title>
<path fill="none" stroke="black" d="M157,-222.394C157,-213.731 157,-204.638 157,-196.461"/>
<polygon fill="black" stroke="black" points="160.5,-196.353 157,-186.353 153.5,-196.353 160.5,-196.353"/>
</g>
<!-- env -->
<g id="node3" class="node"><title>env</title>
<ellipse fill="none" stroke="black" cx="62" cy="-57" rx="62.3993" ry="26.7407"/>
<text text-anchor="middle" x="62" y="-60.8" font-family="Times,serif" font-size="14.00">environment</text>
<text text-anchor="middle" x="62" y="-45.8" font-family="Times,serif" font-size="14.00"> model</text>
</g>
<!-- env&#45;&gt;spin -->
<g id="edge6" class="edge"><title>env&#45;&gt;spin</title>
<path fill="none" stroke="black" d="M88.4197,-81.7858C105.215,-99.4794 126.264,-123.586 140.707,-141.644"/>
<polygon fill="black" stroke="black" points="138.301,-144.249 147.219,-149.969 143.814,-139.936 138.301,-144.249"/>
</g>
<!-- feature -->
<g id="node4" class="node"><title>feature</title>
<ellipse fill="none" stroke="black" cx="253" cy="-57" rx="109.402" ry="37.4533"/>
<text text-anchor="middle" x="253" y="-68.3" font-family="Times,serif" font-size="14.00">database of feature</text>
<text text-anchor="middle" x="253" y="-53.3" font-family="Times,serif" font-size="14.00"> requirements expressed</text>
<text text-anchor="middle" x="253" y="-38.3" font-family="Times,serif" font-size="14.00"> in LTL</text>
</g>
<!-- feature&#45;&gt;spin -->
<g id="edge10" class="edge"><title>feature&#45;&gt;spin</title>
<path fill="none" stroke="black" d="M228.068,-93.5446C214.24,-110.018 197.164,-129.132 183.142,-143.731"/>
<polygon fill="black" stroke="black" points="180.606,-141.318 176.121,-150.917 185.613,-146.21 180.606,-141.318"/>
</g>
<!-- spin&#45;&gt;env -->
<g id="edge8" class="edge"><title>spin&#45;&gt;env</title>
<path fill="none" stroke="black" d="M138.027,-150.917C122.504,-135.198 100.81,-110.805 84.4657,-90.9562"/>
<polygon fill="black" stroke="black" points="87.0643,-88.6039 78.0447,-83.0453 81.6293,-93.0153 87.0643,-88.6039"/>
</g>
<!-- spin&#45;&gt;feature -->
<g id="edge12" class="edge"><title>spin&#45;&gt;feature</title>
<path fill="none" stroke="black" d="M166.938,-149.969C177.181,-136.676 193.453,-117.621 209.149,-100.298"/>
<polygon fill="black" stroke="black" points="212.127,-102.228 216.297,-92.4883 206.964,-97.5022 212.127,-102.228"/>
</g>
<!-- out -->
<g id="node6" class="node"><title>out</title>
<ellipse fill="none" stroke="black" cx="437" cy="-57" rx="52.0138" ry="52.1647"/>
<ellipse fill="none" stroke="black" cx="437" cy="-57" rx="55.9899" ry="56.1523"/>
<text text-anchor="middle" x="437" y="-60.8" font-family="Times,serif" font-size="14.00">bug</text>
<text text-anchor="middle" x="437" y="-45.8" font-family="Times,serif" font-size="14.00"> reporting</text>
</g>
<!-- spin&#45;&gt;out -->
<g id="edge14" class="edge"><title>spin&#45;&gt;out</title>
<path fill="none" stroke="black" d="M209.507,-160.859C254.345,-154.046 319.555,-140.339 371,-114 377.021,-110.917 382.966,-107.187 388.674,-103.132"/>
<polygon fill="black" stroke="black" points="390.952,-105.799 396.85,-96.9975 386.751,-100.2 390.952,-105.799"/>
</g>
</g>
</svg>
