<?xml version="1.0" encoding="UTF-8" standalone="no"?>
<!DOCTYPE svg PUBLIC "-//W3C//DTD SVG 1.1//EN"
 "http://www.w3.org/Graphics/SVG/1.1/DTD/svg11.dtd">
<!-- Generated by graphviz version 2.28.0 (20111201.0358)
 -->
<!-- Title: _anonymous_0 Pages: 1 -->
<svg width="564pt" height="384pt"
 viewBox="0.00 0.00 564.00 384.00" xmlns="http://www.w3.org/2000/svg" xmlns:xlink="http://www.w3.org/1999/xlink">
<g id="graph1" class="graph" transform="scale(1 1) rotate(0) translate(4 380)">
<title>_anonymous_0</title>
<polygon fill="white" stroke="white" points="-4,5 -4,-380 561,-380 561,5 -4,5"/>
<!-- code -->
<g id="node1" class="node"><title>code</title>
<ellipse fill="none" stroke="black" cx="344" cy="-358" rx="38.1822" ry="18"/>
<text text-anchor="middle" x="344" y="-353.8" font-family="Times,serif" font-size="14.00">C code</text>
</g>
<!-- map -->
<g id="node2" class="node"><title>map</title>
<ellipse fill="none" stroke="black" cx="344" cy="-274" rx="72.3352" ry="29.3315"/>
<text text-anchor="middle" x="344" y="-278.2" font-family="Times,serif" font-size="14.00">produce madel</text>
<text text-anchor="middle" x="344" y="-261.4" font-family="Times,serif" font-size="14.00"> extraction map</text>
</g>
<!-- code&#45;&gt;map -->
<g id="edge2" class="edge"><title>code&#45;&gt;map</title>
<path fill="none" stroke="black" d="M344,-339.61C344,-332.027 344,-322.809 344,-313.74"/>
<polygon fill="black" stroke="black" points="347.5,-313.658 344,-303.658 340.5,-313.658 347.5,-313.658"/>
</g>
<!-- spin -->
<g id="node3" class="node"><title>spin</title>
<ellipse fill="none" stroke="black" cx="344" cy="-190" rx="58.2694" ry="18"/>
<text text-anchor="middle" x="344" y="-185.8" font-family="Times,serif" font-size="14.00">SPIN model</text>
</g>
<!-- map&#45;&gt;spin -->
<g id="edge4" class="edge"><title>map&#45;&gt;spin</title>
<path fill="none" stroke="black" d="M344,-244.32C344,-235.877 344,-226.666 344,-218.311"/>
<polygon fill="black" stroke="black" points="347.5,-218.309 344,-208.309 340.5,-218.309 347.5,-218.309"/>
</g>
<!-- out -->
<g id="node4" class="node"><title>out</title>
<ellipse fill="none" stroke="black" cx="67" cy="-68" rx="63.0211" ry="63.1776"/>
<ellipse fill="none" stroke="black" cx="67" cy="-68" rx="67.0014" ry="67.1678"/>
<text text-anchor="middle" x="67" y="-63.8" font-family="Times,serif" font-size="14.00">bug reporting</text>
</g>
<!-- spin&#45;&gt;out -->
<g id="edge14" class="edge"><title>spin&#45;&gt;out</title>
<path fill="none" stroke="black" d="M291.9,-181.885C250.073,-174.634 190.81,-160.821 144,-136 136.686,-132.122 129.477,-127.428 122.578,-122.344"/>
<polygon fill="black" stroke="black" points="124.693,-119.555 114.635,-116.224 120.42,-125.1 124.693,-119.555"/>
</g>
<!-- env -->
<g id="node5" class="node"><title>env</title>
<ellipse fill="none" stroke="black" cx="239" cy="-68" rx="86.1007" ry="18"/>
<text text-anchor="middle" x="239" y="-63.8" font-family="Times,serif" font-size="14.00">environment model</text>
</g>
<!-- spin&#45;&gt;env -->
<g id="edge6" class="edge"><title>spin&#45;&gt;env</title>
<path fill="none" stroke="black" d="M325.051,-172.816C305.016,-152.558 274.198,-117.646 255.237,-93.9565"/>
<polygon fill="black" stroke="black" points="257.989,-91.7939 249.062,-86.0875 252.482,-96.1152 257.989,-91.7939"/>
</g>
<!-- feature -->
<g id="node6" class="node"><title>feature</title>
<ellipse fill="none" stroke="black" cx="450" cy="-68" rx="106.452" ry="41.0911"/>
<text text-anchor="middle" x="450" y="-80.6" font-family="Times,serif" font-size="14.00">database of feature</text>
<text text-anchor="middle" x="450" y="-63.8" font-family="Times,serif" font-size="14.00"> requirements expressed</text>
<text text-anchor="middle" x="450" y="-47" font-family="Times,serif" font-size="14.00"> in LTL</text>
</g>
<!-- spin&#45;&gt;feature -->
<g id="edge10" class="edge"><title>spin&#45;&gt;feature</title>
<path fill="none" stroke="black" d="M354.09,-172.061C365.703,-157.052 385.109,-134.445 403.487,-114.224"/>
<polygon fill="black" stroke="black" points="406.287,-116.35 410.462,-106.613 401.126,-111.621 406.287,-116.35"/>
</g>
<!-- env&#45;&gt;spin -->
<g id="edge8" class="edge"><title>env&#45;&gt;spin</title>
<path fill="none" stroke="black" d="M258.609,-85.8524C278.635,-106.182 308.946,-140.54 327.704,-163.97"/>
<polygon fill="black" stroke="black" points="325.126,-166.354 334.052,-172.061 330.633,-162.033 325.126,-166.354"/>
</g>
<!-- feature&#45;&gt;spin -->
<g id="edge12" class="edge"><title>feature&#45;&gt;spin</title>
<path fill="none" stroke="black" d="M422.038,-107.858C406.046,-126.779 386.205,-148.916 370.454,-165.284"/>
<polygon fill="black" stroke="black" points="367.576,-163.221 363.084,-172.816 372.579,-168.116 367.576,-163.221"/>
</g>
</g>
</svg>
