<?xml version="1.0" encoding="UTF-8" standalone="no"?>
<!DOCTYPE svg PUBLIC "-//W3C//DTD SVG 1.1//EN"
 "http://www.w3.org/Graphics/SVG/1.1/DTD/svg11.dtd">
<!-- Generated by graphviz version 2.28.0 (20111201.0358)
 -->
<!-- Title: _anonymous_0 Pages: 1 -->
<svg width="751pt" height="298pt"
 viewBox="0.00 0.00 751.00 298.00" xmlns="http://www.w3.org/2000/svg" xmlns:xlink="http://www.w3.org/1999/xlink">
<g id="graph1" class="graph" transform="scale(1 1) rotate(0) translate(4 294)">
<title>_anonymous_0</title>
<polygon fill="white" stroke="white" points="-4,5 -4,-294 748,-294 748,5 -4,5"/>
<!-- code -->
<g id="node1" class="node"><title>code</title>
<ellipse fill="none" stroke="black" cx="288" cy="-272" rx="63.0921" ry="18"/>
<text text-anchor="middle" x="288" y="-267.8" font-family="Times,serif" font-size="14.00">ANSI C code</text>
</g>
<!-- spin -->
<g id="node2" class="node"><title>spin</title>
<ellipse fill="none" stroke="black" cx="288" cy="-182" rx="31.4395" ry="18"/>
<text text-anchor="middle" x="288" y="-177.8" font-family="Times,serif" font-size="14.00">SPIN</text>
</g>
<!-- code&#45;&gt;spin -->
<g id="edge2" class="edge"><title>code&#45;&gt;spin</title>
<path fill="none" stroke="black" d="M288,-253.614C288,-241.24 288,-224.369 288,-210.22"/>
<polygon fill="black" stroke="black" points="291.5,-210.05 288,-200.05 284.5,-210.05 291.5,-210.05"/>
<text text-anchor="middle" x="330.389" y="-222.8" font-family="Times,serif" font-size="14.00"> 1. build model</text>
</g>
<!-- abs -->
<g id="node3" class="node"><title>abs</title>
<ellipse fill="none" stroke="black" cx="76" cy="-92" rx="76.3026" ry="18"/>
<text text-anchor="middle" x="76" y="-87.8" font-family="Times,serif" font-size="14.00">Abstraction Map</text>
</g>
<!-- spin&#45;&gt;abs -->
<g id="edge4" class="edge"><title>spin&#45;&gt;abs</title>
<path fill="none" stroke="black" d="M263.266,-170.733C228.538,-156.317 164.724,-129.829 121.342,-111.821"/>
<polygon fill="black" stroke="black" points="122.449,-108.491 111.871,-107.89 119.765,-114.956 122.449,-108.491"/>
<text text-anchor="middle" x="203.5" y="-132.8" font-family="Times,serif" font-size="14.00">2</text>
</g>
<!-- context -->
<g id="node4" class="node"><title>context</title>
<ellipse fill="none" stroke="black" cx="212" cy="-92" rx="41.4237" ry="18"/>
<text text-anchor="middle" x="212" y="-87.8" font-family="Times,serif" font-size="14.00">Context</text>
</g>
<!-- spin&#45;&gt;context -->
<g id="edge6" class="edge"><title>spin&#45;&gt;context</title>
<path fill="none" stroke="black" d="M274.413,-165.267C262.778,-151.796 245.849,-132.193 232.556,-116.802"/>
<polygon fill="black" stroke="black" points="235.169,-114.472 225.984,-109.192 229.871,-119.048 235.169,-114.472"/>
<text text-anchor="middle" x="259.5" y="-132.8" font-family="Times,serif" font-size="14.00">3</text>
</g>
<!-- feature -->
<g id="node5" class="node"><title>feature</title>
<ellipse fill="none" stroke="black" cx="364" cy="-92" rx="92.2257" ry="18"/>
<text text-anchor="middle" x="364" y="-87.8" font-family="Times,serif" font-size="14.00">Feature requirements</text>
</g>
<!-- spin&#45;&gt;feature -->
<g id="edge8" class="edge"><title>spin&#45;&gt;feature</title>
<path fill="none" stroke="black" d="M301.587,-165.267C313.076,-151.964 329.729,-132.682 342.944,-117.381"/>
<polygon fill="black" stroke="black" points="345.608,-119.651 349.495,-109.795 340.31,-115.076 345.608,-119.651"/>
<text text-anchor="middle" x="335.5" y="-132.8" font-family="Times,serif" font-size="14.00">4</text>
</g>
<!-- bug -->
<g id="node6" class="node"><title>bug</title>
<ellipse fill="none" stroke="black" cx="609" cy="-92" rx="134.112" ry="18"/>
<text text-anchor="middle" x="609" y="-87.8" font-family="Times,serif" font-size="14.00">Bug reports, property violations</text>
</g>
<!-- spin&#45;&gt;bug -->
<g id="edge10" class="edge"><title>spin&#45;&gt;bug</title>
<path fill="none" stroke="black" d="M315.925,-173.345C366.155,-159.574 473.009,-130.281 542.87,-111.129"/>
<polygon fill="black" stroke="black" points="544.179,-114.4 552.897,-108.38 542.328,-107.649 544.179,-114.4"/>
<text text-anchor="middle" x="480.5" y="-132.8" font-family="Times,serif" font-size="14.00">5</text>
</g>
<!-- user -->
<g id="node7" class="node"><title>user</title>
<ellipse fill="none" stroke="black" cx="609" cy="-18" rx="79.5124" ry="18"/>
<text text-anchor="middle" x="609" y="-13.8" font-family="Times,serif" font-size="14.00">Users/Developers</text>
</g>
<!-- bug&#45;&gt;user -->
<g id="edge12" class="edge"><title>bug&#45;&gt;user</title>
<path fill="none" stroke="black" d="M609,-73.937C609,-65.8072 609,-55.8761 609,-46.7047"/>
<polygon fill="black" stroke="black" points="612.5,-46.4406 609,-36.4407 605.5,-46.4407 612.5,-46.4406"/>
</g>
</g>
</svg>
