<?xml version="1.0" encoding="UTF-8" standalone="no"?>
<!DOCTYPE svg PUBLIC "-//W3C//DTD SVG 1.1//EN"
 "http://www.w3.org/Graphics/SVG/1.1/DTD/svg11.dtd">
<!-- Generated by graphviz version 2.28.0 (20111201.0358)
 -->
<!-- Title: _anonymous_0 Pages: 1 -->
<svg width="404pt" height="480pt"
 viewBox="0.00 0.00 404.00 480.00" xmlns="http://www.w3.org/2000/svg" xmlns:xlink="http://www.w3.org/1999/xlink">
<g id="graph1" class="graph" transform="scale(1 1) rotate(0) translate(4 476)">
<title>_anonymous_0</title>
<polygon fill="white" stroke="white" points="-4,5 -4,-476 401,-476 401,5 -4,5"/>
<!-- ltl -->
<g id="node1" class="node"><title>ltl</title>
<ellipse fill="none" stroke="black" cx="63" cy="-445" rx="63.459" ry="26.7407"/>
<text text-anchor="middle" x="63" y="-448.8" font-family="Times,serif" font-size="14.00">LTL</text>
<text text-anchor="middle" x="63" y="-433.8" font-family="Times,serif" font-size="14.00"> requirement</text>
</g>
<!-- logic -->
<g id="node2" class="node"><title>logic</title>
<ellipse fill="none" stroke="black" cx="63" cy="-355" rx="49.2462" ry="26.7407"/>
<text text-anchor="middle" x="63" y="-358.8" font-family="Times,serif" font-size="14.00">Logical</text>
<text text-anchor="middle" x="63" y="-343.8" font-family="Times,serif" font-size="14.00"> negation</text>
</g>
<!-- ltl&#45;&gt;logic -->
<g id="edge2" class="edge"><title>ltl&#45;&gt;logic</title>
<path fill="none" stroke="black" d="M63,-418.073C63,-409.999 63,-400.943 63,-392.296"/>
<polygon fill="black" stroke="black" points="66.5001,-392.046 63,-382.046 59.5001,-392.046 66.5001,-392.046"/>
</g>
<!-- model -->
<g id="node3" class="node"><title>model</title>
<ellipse fill="none" stroke="black" cx="189" cy="-265" rx="50.3073" ry="26.7407"/>
<text text-anchor="middle" x="189" y="-268.8" font-family="Times,serif" font-size="14.00">Model</text>
<text text-anchor="middle" x="189" y="-253.8" font-family="Times,serif" font-size="14.00"> extractor</text>
</g>
<!-- logic&#45;&gt;model -->
<g id="edge4" class="edge"><title>logic&#45;&gt;model</title>
<path fill="none" stroke="black" d="M92.5414,-333.368C109.951,-321.209 132.162,-305.696 150.882,-292.622"/>
<polygon fill="black" stroke="black" points="153.013,-295.403 159.207,-286.808 149.005,-289.664 153.013,-295.403"/>
</g>
<!-- automata -->
<g id="node7" class="node"><title>automata</title>
<ellipse fill="none" stroke="black" cx="189" cy="-175" rx="60.1562" ry="26.7407"/>
<text text-anchor="middle" x="189" y="-178.8" font-family="Times,serif" font-size="14.00">Omega</text>
<text text-anchor="middle" x="189" y="-163.8" font-family="Times,serif" font-size="14.00"> automation</text>
</g>
<!-- model&#45;&gt;automata -->
<g id="edge11" class="edge"><title>model&#45;&gt;automata</title>
<path fill="none" stroke="black" d="M189,-238.073C189,-229.999 189,-220.943 189,-212.296"/>
<polygon fill="black" stroke="black" points="192.5,-212.046 189,-202.046 185.5,-212.046 192.5,-212.046"/>
</g>
<!-- c -->
<g id="node4" class="node"><title>c</title>
<ellipse fill="none" stroke="black" cx="189" cy="-445" rx="37.0701" ry="18"/>
<text text-anchor="middle" x="189" y="-441.3" font-family="Times,serif" font-size="14.00">C code</text>
</g>
<!-- abs -->
<g id="node5" class="node"><title>abs</title>
<ellipse fill="none" stroke="black" cx="189" cy="-355" rx="58.5343" ry="26.7407"/>
<text text-anchor="middle" x="189" y="-358.8" font-family="Times,serif" font-size="14.00">Abstraction</text>
<text text-anchor="middle" x="189" y="-343.8" font-family="Times,serif" font-size="14.00"> map</text>
</g>
<!-- c&#45;&gt;abs -->
<g id="edge6" class="edge"><title>c&#45;&gt;abs</title>
<path fill="none" stroke="black" d="M189,-426.614C189,-416.774 189,-404.089 189,-392.191"/>
<polygon fill="black" stroke="black" points="192.5,-392.029 189,-382.029 185.5,-392.029 192.5,-392.029"/>
</g>
<!-- abs&#45;&gt;model -->
<g id="edge7" class="edge"><title>abs&#45;&gt;model</title>
<path fill="none" stroke="black" d="M189,-328.073C189,-319.999 189,-310.943 189,-302.296"/>
<polygon fill="black" stroke="black" points="192.5,-302.046 189,-292.046 185.5,-302.046 192.5,-302.046"/>
</g>
<!-- env -->
<g id="node6" class="node"><title>env</title>
<ellipse fill="none" stroke="black" cx="331" cy="-355" rx="65.0808" ry="26.7407"/>
<text text-anchor="middle" x="331" y="-358.8" font-family="Times,serif" font-size="14.00">Environment</text>
<text text-anchor="middle" x="331" y="-343.8" font-family="Times,serif" font-size="14.00"> model</text>
</g>
<!-- env&#45;&gt;model -->
<g id="edge9" class="edge"><title>env&#45;&gt;model</title>
<path fill="none" stroke="black" d="M295.899,-332.247C275.921,-319.866 250.797,-304.297 229.926,-291.363"/>
<polygon fill="black" stroke="black" points="231.613,-288.29 221.269,-285.998 227.926,-294.241 231.613,-288.29"/>
</g>
<!-- bug -->
<g id="node8" class="node"><title>bug</title>
<ellipse fill="none" stroke="black" cx="189" cy="-56" rx="51.529" ry="51.9911"/>
<ellipse fill="none" stroke="black" cx="189" cy="-56" rx="55.4931" ry="55.9908"/>
<text text-anchor="middle" x="189" y="-52.3" font-family="Times,serif" font-size="14.00">Bug report</text>
</g>
<!-- automata&#45;&gt;bug -->
<g id="edge13" class="edge"><title>automata&#45;&gt;bug</title>
<path fill="none" stroke="black" d="M189,-148.034C189,-140.305 189,-131.466 189,-122.403"/>
<polygon fill="black" stroke="black" points="192.5,-122.122 189,-112.122 185.5,-122.122 192.5,-122.122"/>
</g>
</g>
</svg>
