<?xml version="1.0" encoding="UTF-8" standalone="no"?>
<!DOCTYPE svg PUBLIC "-//W3C//DTD SVG 1.1//EN"
 "http://www.w3.org/Graphics/SVG/1.1/DTD/svg11.dtd">
<!-- Generated by graphviz version 2.28.0 (20111201.0358)
 -->
<!-- Title: _anonymous_0 Pages: 1 -->
<svg width="484pt" height="332pt"
 viewBox="0.00 0.00 484.00 332.00" xmlns="http://www.w3.org/2000/svg" xmlns:xlink="http://www.w3.org/1999/xlink">
<g id="graph1" class="graph" transform="scale(1 1) rotate(0) translate(4 328)">
<title>_anonymous_0</title>
<polygon fill="white" stroke="white" points="-4,5 -4,-328 481,-328 481,5 -4,5"/>
<!-- fib -->
<g id="node1" class="node"><title>fib</title>
<ellipse fill="none" stroke="black" cx="333" cy="-306" rx="29.0092" ry="18"/>
<text text-anchor="middle" x="333" y="-301.8" font-family="Times,serif" font-size="14.00">fib 5</text>
</g>
<!-- l -->
<g id="node2" class="node"><title>l</title>
<ellipse fill="none" stroke="black" cx="257" cy="-234" rx="29.0092" ry="18"/>
<text text-anchor="middle" x="257" y="-229.8" font-family="Times,serif" font-size="14.00">fib 4</text>
</g>
<!-- fib&#45;&gt;l -->
<g id="edge2" class="edge"><title>fib&#45;&gt;l</title>
<path fill="none" stroke="black" d="M317.253,-290.496C306.482,-280.575 292.028,-267.262 279.977,-256.163"/>
<polygon fill="black" stroke="black" points="282.194,-253.446 272.467,-249.246 277.451,-258.595 282.194,-253.446"/>
</g>
<!-- r -->
<g id="node11" class="node"><title>r</title>
<ellipse fill="none" stroke="black" cx="371" cy="-234" rx="29.0092" ry="18"/>
<text text-anchor="middle" x="371" y="-229.8" font-family="Times,serif" font-size="14.00">fib 3</text>
</g>
<!-- fib&#45;&gt;r -->
<g id="edge4" class="edge"><title>fib&#45;&gt;r</title>
<path fill="none" stroke="black" d="M341.813,-288.765C346.352,-280.404 351.991,-270.016 357.1,-260.606"/>
<polygon fill="black" stroke="black" points="360.275,-262.092 361.97,-251.633 354.123,-258.752 360.275,-262.092"/>
</g>
<!-- ll -->
<g id="node3" class="node"><title>ll</title>
<ellipse fill="none" stroke="black" cx="143" cy="-162" rx="29.0092" ry="18"/>
<text text-anchor="middle" x="143" y="-157.8" font-family="Times,serif" font-size="14.00">fib 3</text>
</g>
<!-- l&#45;&gt;ll -->
<g id="edge6" class="edge"><title>l&#45;&gt;ll</title>
<path fill="none" stroke="black" d="M237.143,-220.807C219.027,-209.683 192.046,-193.116 171.607,-180.565"/>
<polygon fill="black" stroke="black" points="173.365,-177.538 163.012,-175.288 169.703,-183.503 173.365,-177.538"/>
</g>
<!-- lr -->
<g id="node8" class="node"><title>lr</title>
<ellipse fill="none" stroke="black" cx="257" cy="-162" rx="29.0092" ry="18"/>
<text text-anchor="middle" x="257" y="-157.8" font-family="Times,serif" font-size="14.00">fib 2</text>
</g>
<!-- l&#45;&gt;lr -->
<g id="edge8" class="edge"><title>l&#45;&gt;lr</title>
<path fill="none" stroke="black" d="M257,-215.697C257,-207.983 257,-198.712 257,-190.112"/>
<polygon fill="black" stroke="black" points="260.5,-190.104 257,-180.104 253.5,-190.104 260.5,-190.104"/>
</g>
<!-- lll -->
<g id="node4" class="node"><title>lll</title>
<ellipse fill="none" stroke="black" cx="67" cy="-90" rx="29.0092" ry="18"/>
<text text-anchor="middle" x="67" y="-85.8" font-family="Times,serif" font-size="14.00">fib 2</text>
</g>
<!-- ll&#45;&gt;lll -->
<g id="edge10" class="edge"><title>ll&#45;&gt;lll</title>
<path fill="none" stroke="black" d="M127.253,-146.496C116.482,-136.575 102.028,-123.262 89.9766,-112.163"/>
<polygon fill="black" stroke="black" points="92.1937,-109.446 82.467,-105.246 87.4513,-114.595 92.1937,-109.446"/>
</g>
<!-- llr -->
<g id="node7" class="node"><title>llr</title>
<ellipse fill="none" stroke="black" cx="143" cy="-90" rx="29.0092" ry="18"/>
<text text-anchor="middle" x="143" y="-85.8" font-family="Times,serif" font-size="14.00">fib 1</text>
</g>
<!-- ll&#45;&gt;llr -->
<g id="edge12" class="edge"><title>ll&#45;&gt;llr</title>
<path fill="none" stroke="black" d="M143,-143.697C143,-135.983 143,-126.712 143,-118.112"/>
<polygon fill="black" stroke="black" points="146.5,-118.104 143,-108.104 139.5,-118.104 146.5,-118.104"/>
</g>
<!-- llll -->
<g id="node5" class="node"><title>llll</title>
<ellipse fill="none" stroke="black" cx="29" cy="-18" rx="29.0092" ry="18"/>
<text text-anchor="middle" x="29" y="-13.8" font-family="Times,serif" font-size="14.00">fib 1</text>
</g>
<!-- lll&#45;&gt;llll -->
<g id="edge14" class="edge"><title>lll&#45;&gt;llll</title>
<path fill="none" stroke="black" d="M58.1865,-72.7646C53.6481,-64.4043 48.0087,-54.0159 42.9004,-44.6059"/>
<polygon fill="black" stroke="black" points="45.8765,-42.7521 38.0296,-35.6334 39.7245,-46.0918 45.8765,-42.7521"/>
</g>
<!-- lllr -->
<g id="node6" class="node"><title>lllr</title>
<ellipse fill="none" stroke="black" cx="105" cy="-18" rx="29.0092" ry="18"/>
<text text-anchor="middle" x="105" y="-13.8" font-family="Times,serif" font-size="14.00">fib 0</text>
</g>
<!-- lll&#45;&gt;lllr -->
<g id="edge16" class="edge"><title>lll&#45;&gt;lllr</title>
<path fill="none" stroke="black" d="M75.8135,-72.7646C80.3519,-64.4043 85.9913,-54.0159 91.0996,-44.6059"/>
<polygon fill="black" stroke="black" points="94.2755,-46.0918 95.9704,-35.6334 88.1235,-42.7521 94.2755,-46.0918"/>
</g>
<!-- lrl -->
<g id="node9" class="node"><title>lrl</title>
<ellipse fill="none" stroke="black" cx="219" cy="-90" rx="29.0092" ry="18"/>
<text text-anchor="middle" x="219" y="-85.8" font-family="Times,serif" font-size="14.00">fib 1</text>
</g>
<!-- lr&#45;&gt;lrl -->
<g id="edge18" class="edge"><title>lr&#45;&gt;lrl</title>
<path fill="none" stroke="black" d="M248.187,-144.765C243.648,-136.404 238.009,-126.016 232.9,-116.606"/>
<polygon fill="black" stroke="black" points="235.877,-114.752 228.03,-107.633 229.725,-118.092 235.877,-114.752"/>
</g>
<!-- lrr -->
<g id="node10" class="node"><title>lrr</title>
<ellipse fill="none" stroke="black" cx="295" cy="-90" rx="29.0092" ry="18"/>
<text text-anchor="middle" x="295" y="-85.8" font-family="Times,serif" font-size="14.00">fib 0</text>
</g>
<!-- lr&#45;&gt;lrr -->
<g id="edge20" class="edge"><title>lr&#45;&gt;lrr</title>
<path fill="none" stroke="black" d="M265.813,-144.765C270.352,-136.404 275.991,-126.016 281.1,-116.606"/>
<polygon fill="black" stroke="black" points="284.275,-118.092 285.97,-107.633 278.123,-114.752 284.275,-118.092"/>
</g>
<!-- rl -->
<g id="node12" class="node"><title>rl</title>
<ellipse fill="none" stroke="black" cx="371" cy="-162" rx="29.0092" ry="18"/>
<text text-anchor="middle" x="371" y="-157.8" font-family="Times,serif" font-size="14.00">fib 2</text>
</g>
<!-- r&#45;&gt;rl -->
<g id="edge22" class="edge"><title>r&#45;&gt;rl</title>
<path fill="none" stroke="black" d="M371,-215.697C371,-207.983 371,-198.712 371,-190.112"/>
<polygon fill="black" stroke="black" points="374.5,-190.104 371,-180.104 367.5,-190.104 374.5,-190.104"/>
</g>
<!-- rr -->
<g id="node15" class="node"><title>rr</title>
<ellipse fill="none" stroke="black" cx="447" cy="-162" rx="29.0092" ry="18"/>
<text text-anchor="middle" x="447" y="-157.8" font-family="Times,serif" font-size="14.00">fib 1</text>
</g>
<!-- r&#45;&gt;rr -->
<g id="edge24" class="edge"><title>r&#45;&gt;rr</title>
<path fill="none" stroke="black" d="M386.747,-218.496C397.518,-208.575 411.972,-195.262 424.023,-184.163"/>
<polygon fill="black" stroke="black" points="426.549,-186.595 431.533,-177.246 421.806,-181.446 426.549,-186.595"/>
</g>
<!-- rll -->
<g id="node13" class="node"><title>rll</title>
<ellipse fill="none" stroke="black" cx="371" cy="-90" rx="29.0092" ry="18"/>
<text text-anchor="middle" x="371" y="-85.8" font-family="Times,serif" font-size="14.00">fib 1</text>
</g>
<!-- rl&#45;&gt;rll -->
<g id="edge26" class="edge"><title>rl&#45;&gt;rll</title>
<path fill="none" stroke="black" d="M371,-143.697C371,-135.983 371,-126.712 371,-118.112"/>
<polygon fill="black" stroke="black" points="374.5,-118.104 371,-108.104 367.5,-118.104 374.5,-118.104"/>
</g>
<!-- rlr -->
<g id="node14" class="node"><title>rlr</title>
<ellipse fill="none" stroke="black" cx="447" cy="-90" rx="29.0092" ry="18"/>
<text text-anchor="middle" x="447" y="-85.8" font-family="Times,serif" font-size="14.00">fib 0</text>
</g>
<!-- rl&#45;&gt;rlr -->
<g id="edge28" class="edge"><title>rl&#45;&gt;rlr</title>
<path fill="none" stroke="black" d="M386.747,-146.496C397.518,-136.575 411.972,-123.262 424.023,-112.163"/>
<polygon fill="black" stroke="black" points="426.549,-114.595 431.533,-105.246 421.806,-109.446 426.549,-114.595"/>
</g>
</g>
</svg>
